<svg xmlns="http://www.w3.org/2000/svg" viewBox="0 0 480 320" role="img" aria-labelledby="title desc">
  <title id="title">LACO abstract visual</title>
  <desc id="desc">Three collaborative driving agents exchanging compact latent messages.</desc>
  <defs>
    <linearGradient id="bg" x1="0" y1="0" x2="1" y2="1">
      <stop stop-color="#fff6f8"/>
      <stop offset="1" stop-color="#eef3ff"/>
    </linearGradient>
    <filter id="shadow" x="-30%" y="-30%" width="160%" height="160%">
      <feDropShadow dx="0" dy="5" stdDeviation="6" flood-color="#ad7aa0" flood-opacity=".2"/>
    </filter>
  </defs>
  <rect width="480" height="320" rx="24" fill="url(#bg)"/>
  <g stroke="#e8dce4" stroke-width="1" opacity=".7">
    <path d="M0 64h480M0 128h480M0 192h480M0 256h480"/>
    <path d="M80 0v320M160 0v320M240 0v320M320 0v320M400 0v320"/>
  </g>
  <path d="M50 253c86-75 127-131 198-117 65 13 83 100 182 29" fill="none" stroke="#ff9cb7" stroke-width="10" stroke-linecap="round" opacity=".24"/>
  <g fill="none" stroke="#f42e7a" stroke-width="3" stroke-dasharray="7 8">
    <path d="M112 221 239 126 371 187"/>
    <path d="M112 221 371 187" opacity=".45"/>
  </g>
  <g fill="#fff" stroke="#f42e7a" stroke-width="4" filter="url(#shadow)">
    <g transform="translate(78 194)"><rect width="68" height="38" rx="12"/><circle cx="17" cy="39" r="7" fill="#f42e7a"/><circle cx="51" cy="39" r="7" fill="#f42e7a"/><path d="m13 16 11-9h25l8 9"/></g>
    <g transform="translate(205 99)"><rect width="68" height="38" rx="12"/><circle cx="17" cy="39" r="7" fill="#f42e7a"/><circle cx="51" cy="39" r="7" fill="#f42e7a"/><path d="m13 16 11-9h25l8 9"/></g>
    <g transform="translate(337 160)"><rect width="68" height="38" rx="12"/><circle cx="17" cy="39" r="7" fill="#f42e7a"/><circle cx="51" cy="39" r="7" fill="#f42e7a"/><path d="m13 16 11-9h25l8 9"/></g>
  </g>
  <g fill="#f42e7a"><circle cx="177" cy="172" r="6"/><circle cx="305" cy="157" r="6"/></g>
  <text x="28" y="42" fill="#8e6677" font-family="Arial,sans-serif" font-size="15" font-weight="700" letter-spacing="2">LATENT COMMUNICATION</text>
</svg>
